<?xml version="1.0" encoding="iso-8859-1"?>
<!-- Generator: Adobe Illustrator 21.0.0, SVG Export Plug-In . SVG Version: 6.00 Build 0)  -->
<svg version="1.1" id="Capa_1" xmlns="http://www.w3.org/2000/svg" xmlns:xlink="http://www.w3.org/1999/xlink" x="0px" y="0px"
	 viewBox="0 0 480 480" style="enable-background:new 0 0 480 480;" xml:space="preserve">
<g>
	<g>
		<path d="M168.07,103.93C101.796,103.892,48.039,157.586,48,223.86c-0.028,47.74,28.246,90.956,72,110.052V392
			c0,13.255,10.745,24,24,24v8c0,13.255,10.745,24,24,24s24-10.745,24-24v-8c13.255,0,24-10.745,24-24v-58.088
			c43.684-19.104,71.937-62.233,72-109.912C288.039,157.726,234.344,103.969,168.07,103.93z M176,424c0,4.418-3.582,8-8,8
			s-8-3.582-8-8v-8h16V424z M192,400h-48c-4.418,0-8-3.582-8-8h64C200,396.418,196.418,400,192,400z M200,376h-64v-8h64V376z
			 M200,352h-64v-12.464c20.918,5.952,43.082,5.952,64,0V352z M196.072,324.04l11.848-82.904l-15.84-2.272l-12.632,88.472
			c-7.606,0.885-15.29,0.885-22.896,0l-12.632-88.472l-15.84,2.272l11.848,82.904C95.087,311.436,64.077,270.578,64,224
			c-0.055-57.438,46.463-104.045,103.9-104.1c57.438-0.055,104.045,46.463,104.1,103.9
			C272.045,270.464,241.003,311.444,196.072,324.04z"/>
	</g>
</g>
<g>
	<g>
		<path d="M477.656,138.344l-104-104c-1.5-1.5-3.534-2.344-5.656-2.344V8c0-4.418-3.582-8-8-8H88v0.072
			c-2.113-0.03-4.151,0.788-5.656,2.272l-80,80C0.87,83.856,0.053,85.889,0.072,88H0v384c0,4.418,3.582,8,8,8h352
			c4.418,0,8-3.582,8-8V211.312l18.344,18.344c3.124,3.123,8.188,3.123,11.312,0l80-80
			C480.779,146.532,480.779,141.468,477.656,138.344z M336,16h16v16h-16V16z M80,27.312V80H27.312L80,27.312z M320,464H16V96h72
			c4.418,0,8-3.582,8-8V16h224v16h-32c-4.418,0-8,3.582-8,8v80c0,2.122,0.844,4.156,2.344,5.656L320,163.312V464z M352,464h-16
			V179.312l16,16V464z M392,212.688l-96-96V48h68.688l96,96L392,212.688z"/>
	</g>
</g>
<g>
	<g>
		<path d="M203.576,200.88c-2.251-1.125-4.901-1.125-7.152,0L168,215.056l-28.424-14.216c-2.251-1.125-4.901-1.125-7.152,0l-32,16
			l7.152,14.32L136,216.944l28.424,14.256c2.251,1.125,4.901,1.125,7.152,0L200,216.944l28.424,14.256l7.152-14.32L203.576,200.88z"
			/>
	</g>
</g>
<g>
	<g>
		<path d="M336,64c-13.255,0-24,10.745-24,24s10.745,24,24,24s24-10.745,24-24S349.255,64,336,64z M336,96c-4.418,0-8-3.582-8-8
			s3.582-8,8-8s8,3.582,8,8S340.418,96,336,96z"/>
	</g>
</g>
<g>
	<g>
		<rect x="200" y="80" width="64" height="16"/>
	</g>
</g>
<g>
	<g>
		<rect x="240" y="48" width="24" height="16"/>
	</g>
</g>
<g>
	<g>
		<rect x="160" y="48" width="64" height="16"/>
	</g>
</g>
<g>
	<g>
		<rect x="375.715" y="148.002" transform="matrix(0.7071 -0.7071 0.7071 0.7071 8.0172 331.36)" width="56.56" height="16"/>
	</g>
</g>
<g>
	<g>
		<path d="M478.152,275.08l0.096-0.08l-32-40c-3.007-3.451-8.243-3.81-11.693-0.802c-0.286,0.249-0.554,0.517-0.802,0.802l-32,40
			l0.096,0.08c-1.164,1.379-1.816,3.116-1.848,4.92v184c0,8.837,7.163,16,16,16h48c8.837,0,16-7.163,16-16V280
			C479.968,278.196,479.316,276.458,478.152,275.08z M440,252.8l15.36,19.2h-30.72L440,252.8z M464,464h-48V288h48V464z"/>
	</g>
</g>
<g>
	<g>
		<rect x="240" y="344" width="64" height="16"/>
	</g>
</g>
<g>
	<g>
		<rect x="240" y="376" width="64" height="16"/>
	</g>
</g>
<g>
	<g>
		<rect x="240" y="408" width="64" height="16"/>
	</g>
</g>
<g>
</g>
<g>
</g>
<g>
</g>
<g>
</g>
<g>
</g>
<g>
</g>
<g>
</g>
<g>
</g>
<g>
</g>
<g>
</g>
<g>
</g>
<g>
</g>
<g>
</g>
<g>
</g>
<g>
</g>
</svg>
