<?xml version="1.0" standalone="no"?>
<!DOCTYPE svg PUBLIC "-//W3C//DTD SVG 20010904//EN"
 "http://www.w3.org/TR/2001/REC-SVG-20010904/DTD/svg10.dtd">
<svg version="1.0" xmlns="http://www.w3.org/2000/svg"
 width="700.000000pt" height="700.000000pt" viewBox="0 0 700.000000 700.000000"
 preserveAspectRatio="xMidYMid meet">
<metadata>
Created by potrace 1.11, written by Peter Selinger 2001-2013
</metadata>
<g transform="translate(0.000000,700.000000) scale(0.100000,-0.100000)"
fill="#000000" stroke="none">
<path d="M3300 6667 c-189 -347 -286 -525 -344 -630 -20 -37 -52 -97 -73 -134
-20 -38 -48 -90 -63 -118 -15 -27 -121 -221 -235 -430 -114 -209 -222 -407
-240 -440 -60 -110 -397 -729 -430 -790 -43 -79 -198 -363 -243 -445 -51 -94
-84 -154 -132 -243 -49 -92 -63 -89 130 -22 69 24 159 54 200 68 41 14 194 67
340 117 146 50 297 102 335 115 39 13 196 67 350 120 154 53 334 114 400 136
66 22 129 44 140 49 22 9 446 155 507 174 20 6 40 14 43 18 5 5 0 49 -20 148
-4 22 -20 112 -30 165 -1 11 -12 70 -24 130 -11 61 -23 124 -26 140 -10 59
-44 243 -51 280 -6 32 -25 132 -30 162 -2 16 -11 64 -19 108 -9 44 -20 105
-25 135 -6 30 -17 91 -25 135 -8 44 -17 91 -19 105 -2 14 -21 115 -41 225 -20
110 -39 211 -41 225 -3 14 -13 70 -24 125 -10 55 -22 116 -25 135 -5 33 -14
81 -65 358 -11 59 -23 126 -26 150 -4 23 -10 44 -13 46 -4 3 -85 -140 -181
-317z"/>
<path d="M6645 4845 c-89 -30 -304 -99 -625 -200 -297 -94 -532 -169 -680
-216 -91 -30 -167 -54 -170 -54 -3 0 -27 -8 -55 -17 -27 -9 -131 -42 -230 -73
-99 -31 -198 -63 -220 -70 -22 -8 -121 -39 -220 -70 -193 -61 -376 -119 -930
-296 -192 -61 -377 -119 -410 -129 -86 -26 -945 -299 -975 -310 -14 -5 -92
-30 -175 -55 -82 -26 -213 -67 -290 -92 -77 -25 -146 -47 -154 -49 -9 -3 18
-26 67 -57 115 -73 718 -450 740 -462 19 -11 178 -110 257 -161 79 -50 332
-207 366 -226 16 -10 40 -24 52 -32 21 -14 46 2 477 303 525 365 1256 875
1316 917 23 16 70 49 105 73 35 25 84 59 109 76 42 29 539 376 675 470 33 23
80 56 105 74 25 17 61 42 80 55 19 13 105 72 190 132 86 60 176 122 200 139
25 16 47 33 50 36 3 3 41 30 85 59 44 30 85 58 90 62 6 5 69 49 140 99 135 94
156 110 140 108 -6 0 -55 -16 -110 -34z"/>
<path d="M6915 4800 c-4 -6 -22 -21 -40 -33 -58 -38 -220 -151 -230 -159 -9
-8 -394 -278 -960 -673 -88 -61 -205 -143 -260 -181 -55 -39 -129 -91 -165
-115 -237 -165 -375 -264 -378 -271 -2 -4 -7 -8 -12 -8 -6 0 -1178 -816 -1340
-933 -14 -10 -133 -94 -265 -186 -132 -92 -269 -187 -305 -212 -36 -25 -398
-278 -805 -563 -407 -284 -750 -525 -762 -534 -12 -9 -90 -64 -173 -122 -196
-136 -262 -182 -466 -325 -93 -65 -198 -139 -234 -163 -330 -230 -489 -344
-445 -319 6 3 26 8 45 11 19 3 53 11 75 16 22 6 50 13 62 15 12 3 237 55 500
115 263 61 492 113 508 116 17 2 44 9 60 14 17 5 41 11 55 14 14 2 54 11 90
20 114 27 244 57 270 62 14 3 122 28 240 55 118 28 276 63 350 80 74 16 149
33 165 38 17 5 46 12 65 16 19 4 89 20 155 35 66 16 135 32 154 35 19 3 37 8
41 10 4 2 22 7 41 10 19 3 50 10 69 15 19 5 46 11 60 14 19 3 379 86 570 131
29 7 165 37 187 41 12 2 34 9 48 14 14 5 25 8 25 5 0 -2 15 1 33 6 30 9 181
44 237 55 14 3 72 17 130 30 58 14 116 28 130 30 22 5 44 9 130 29 8 2 47 11
85 20 39 10 84 19 100 22 65 10 73 19 148 153 7 14 26 48 42 75 16 28 37 66
48 85 22 39 91 161 131 230 14 25 40 70 56 100 17 30 40 71 51 90 12 19 118
206 236 415 119 209 226 397 239 417 13 21 24 40 24 42 0 3 20 40 45 82 25 41
45 78 45 80 0 2 11 21 24 42 13 20 129 224 259 452 129 228 244 431 256 450
11 19 24 41 28 49 3 8 49 89 101 180 52 91 106 186 120 211 14 25 78 137 142
250 163 285 182 321 177 327 -3 2 -8 -1 -12 -7z"/>
</g>
</svg>
